#N canvas 643 60 797 710 10;
#X obj 878 39 loadbang;
#X msg 885 -7 \; pd dsp \$1;
#X text 963 9 Turn DSP on/off;
#X obj 878 -48 tgl 15 0 empty empty empty 17 7 0 10 -262144 -1 -1 1
1;
#X obj 234 565 dac~ 1 2;
#N canvas 0 23 1440 855 exciter 0;
#X obj 71 415 osc~;
#X obj 71 383 mtof;
#X obj 71 532 *~;
#X obj 149 394 pack f f f f;
#X msg 149 421 1 \$2 \, \$4 \$3 \$2;
#X obj 149 473 vline~;
#X obj 251 403 sel 0;
#X obj 251 425 pack f f;
#X msg 251 447 0 \$2;
#X obj 176 342 loadbang;
#X msg 209 364 0;
#X msg 176 364 1;
#X obj 331 242 stripnote;
#X obj 334 166 makenote 127 250;
#X obj 339 539 *~;
#X obj 417 401 pack f f f f;
#X msg 417 428 1 \$2 \, \$4 \$3 \$2;
#X obj 417 480 vline~;
#X floatatom 441 378 5 0 0 0 - - -, f 5;
#X floatatom 477 378 5 0 0 0 - - -, f 5;
#X floatatom 513 378 5 0 0 0 - - -, f 5;
#X floatatom 549 378 5 0 0 0 - - -, f 5;
#X obj 533 404 sel 0;
#X obj 533 426 pack f f;
#X msg 533 448 0 \$2;
#X obj 339 422 noise~;
#X obj 461 212 vsl 15 128 1 10000 1 0 empty empty empty 0 -9 0 10 -262144
-1 -1 0 1;
#X obj 481 212 vsl 15 128 1 10000 1 0 empty empty empty 0 -9 0 10 -262144
-1 -1 0 1;
#X obj 503 212 vsl 15 128 0 1 0 0 empty empty empty 0 -9 0 10 -262144
-1 -1 0 1;
#X obj 527 212 vsl 15 128 1 10000 1 0 empty empty empty 0 -9 0 10 -262144
-1 -1 0 1;
#X obj 331 263 t f f;
#X obj 353 205 t f f;
#X obj 127 696 +~;
#X obj 156 561 hsl 128 15 0 1 0 0 empty empty empty -2 -8 0 10 -262144
-1 -1 1143 1;
#X obj 157 593 inv;
#X obj 72 603 *~ 0;
#X obj 341 603 *~ 1;
#X floatatom 196 592 5 0 0 0 - - -, f 5;
#X text 240 532 crossfade;
#X text 83 289 impulse;
#X text 565 340 noise;
#X text 41 119 exciter;
#X text 459 189 adsr for noise;
#X obj 128 741 lop~;
#X obj 191 708 hsl 128 15 1 20000 1 0 empty empty empty -2 -8 0 10
-262144 -1 -1 12700 1;
#X floatatom 191 728 6 0 0 0 - - -, f 6;
#X obj 128 783 hip~;
#X obj 192 764 hsl 128 15 1 20000 1 0 empty empty empty -2 -8 0 10
-262144 -1 -1 0 1;
#X floatatom 208 788 5 0 0 0 - - -, f 5;
#X msg 263 679 20000;
#X obj 231 231 s midi;
#X obj 231 200 pack f f;
#X obj 279 656 loadbang;
#X obj 412 193 loadbang;
#X obj 125 511 loadbang;
#X obj 238 76 r note_selector;
#X msg 136 536 0.09;
#X obj 255 739 loadbang;
#X obj 201 509 r random_0-1;
#X floatatom 201 531 5 0 0 0 - - -, f 5;
#X obj 127 837 *~ 0.5;
#X obj 127 884 s~ exciter;
#X connect 0 0 2 0;
#X connect 1 0 0 0;
#X connect 2 0 35 0;
#X connect 3 0 4 0;
#X connect 4 0 5 0;
#X connect 5 0 2 1;
#X connect 6 0 7 0;
#X connect 7 0 8 0;
#X connect 8 0 5 0;
#X connect 9 0 11 0;
#X connect 9 0 10 0;
#X connect 10 0 3 3;
#X connect 10 0 7 1;
#X connect 11 0 3 1;
#X connect 11 0 3 2;
#X connect 12 0 30 0;
#X connect 13 0 12 0;
#X connect 13 0 51 0;
#X connect 13 1 31 0;
#X connect 13 1 51 1;
#X connect 14 0 36 0;
#X connect 15 0 16 0;
#X connect 16 0 17 0;
#X connect 17 0 14 1;
#X connect 18 0 15 1;
#X connect 18 0 3 1;
#X connect 19 0 15 2;
#X connect 19 0 3 2;
#X connect 20 0 15 3;
#X connect 20 0 3 3;
#X connect 21 0 23 1;
#X connect 21 0 7 1;
#X connect 22 0 23 0;
#X connect 23 0 24 0;
#X connect 24 0 17 0;
#X connect 25 0 14 0;
#X connect 26 0 18 0;
#X connect 27 0 19 0;
#X connect 28 0 20 0;
#X connect 29 0 21 0;
#X connect 30 0 1 0;
#X connect 30 0 3 0;
#X connect 30 1 15 0;
#X connect 31 0 6 0;
#X connect 31 1 12 1;
#X connect 31 1 22 0;
#X connect 32 0 43 0;
#X connect 33 0 34 0;
#X connect 33 0 36 1;
#X connect 33 0 37 0;
#X connect 34 0 35 1;
#X connect 35 0 32 0;
#X connect 36 0 32 1;
#X connect 43 0 46 0;
#X connect 44 0 45 0;
#X connect 44 0 43 1;
#X connect 46 0 60 0;
#X connect 47 0 48 0;
#X connect 47 0 46 1;
#X connect 49 0 44 0;
#X connect 51 0 50 0;
#X connect 52 0 49 0;
#X connect 53 0 26 0;
#X connect 53 0 29 0;
#X connect 53 0 28 0;
#X connect 53 0 27 0;
#X connect 54 0 56 0;
#X connect 55 0 13 0;
#X connect 56 0 33 0;
#X connect 57 0 47 0;
#X connect 58 0 59 0;
#X connect 60 0 61 0;
#X restore 53 22 pd exciter;
#N canvas 0 23 1440 832 note_selector 0;
#X obj 850 458 s note_selector;
#N canvas 0 22 450 300 (subpatch) 0;
#X array scale_intervals 8 float 3 black black;
#A 0 0 0.2 0.3 0.5 0.7 0.8 1 1.2;
#X coords 0 2.4 8 0 200 140 1;
#X restore 43 11 graph;
#X msg 294 7 \; scale_intervals 0 0 0.2 0.4 0.5 0.7 0.9 1.1 1.2;
#X msg 294 88 \; scale_intervals 0 0 0.2 0.3 0.5 0.7 0.8 1 1.2;
#X msg 294 129 \; scale_intervals 0 0 0.2 0.3 0.5 0.7 0.8 1.1 1.2;
#X msg 294 170 \; scale_intervals 0 0 0.2 0.3 0.5 0.7 0.9 1.1 1.2;
#X obj 754 195 tgl 15 0 empty sequence empty 17 7 0 10 -262144 -1 -1
0 1;
#X obj 850 277 tabread scale_intervals;
#X obj 850 320 * 10;
#X obj 850 343 + 60;
#X text 941 72 capacitive input here;
#X obj 896 -37 r bela_capTouch;
#X obj 719 105 list;
#X obj 719 65 metro 200;
#X obj 719 39 loadbang;
#X text 793 65 Throttle printing;
#X text 1015 -35 This receives reading from the cap sensor every block
;
#X obj 888 101 unpack f f f f f f f f f f f f f f f f f f f f f f f
f f f, f 233;
#X obj 754 217 metro 300;
#X text 1480 8 trigger negative capacitance;
#X obj 1147 278 s all_triggers;
#X obj 850 413 +;
#X msg 888 377 0;
#X obj 1147 489 f 0;
#X obj 1178 489 + 1;
#X floatatom 1173 520 3 0 0 0 - - -, f 3;
#X obj 1147 520 f, f 1;
#X obj 1079 426 tgl 15 0 empty empty empty 17 7 0 10 -262144 -1 -1
1 1;
#X msg 1132 471 0, f 1;
#X text 1152 450 metro = amount of time to measure for bangs;
#X obj 1147 632 hsl 128 15 0 20 0 0 empty empty empty -2 -8 0 10 -262144
-1 -1 0 1;
#X obj 1147 608 line;
#X obj 1147 582 pack f 1000;
#X text 1222 577 duration in ms depends on how reactive or smooth the
patch should be, f 34;
#X floatatom 1147 659 5 0 0 0 - - -, f 5;
#X obj 1147 550 change;
#N canvas 395 132 339 222 set_range 0;
#X obj 17 15 inlet;
#X obj 61 108 >= 1;
#X obj 61 137 &;
#X floatatom 87 45 5 0 0 0 - - -, f 5;
#X obj 17 188 s empty_rcv;
#X obj 61 167 s quiet_rcv;
#X obj 129 191 s crowded_rcv;
#X obj 17 108 < 1;
#X obj 92 108 <= 4;
#X obj 130 108 > 4;
#X connect 0 0 1 0;
#X connect 0 0 3 0;
#X connect 0 0 7 0;
#X connect 0 0 8 0;
#X connect 0 0 9 0;
#X connect 1 0 2 0;
#X connect 2 0 5 0;
#X connect 7 0 4 0;
#X connect 8 0 2 1;
#X connect 9 0 6 0;
#X restore 1147 688 pd set_range;
#X obj 1079 403 loadbang;
#X obj 1079 450 metro 1000;
#X obj 1147 401 r all_triggers;
#X text 1234 689 < sets range of states;
#X obj 1450 469 tgl 15 0 empty quiet_rcv quiet_ 17 7 0 10 -260353 -1
-1 0 1;
#X obj 1450 493 tgl 15 0 empty crowded_rcv crowded_ 17 7 0 10 -3969
-1 -1 0 1;
#X obj 1450 445 tgl 15 0 empty empty_rcv empty_ 17 7 0 10 -258625 -1
-1 1 1;
#X text 1384 655 - all needs scaling;
#X text 598 13 major;
#X text 598 97 natural minor;
#X text 598 134 harmonic minor;
#X text 598 176 melodic minor;
#X obj 719 174 hsl 128 15 2000 200 1 0 empty empty empty -2 -8 0 10
-262144 -1 -1 0 1;
#X obj 731 214 bng 15 250 50 0 empty empty empty 17 7 0 10 -262144
-1 -1;
#X obj 894 249 bng 15 250 50 0 empty empty empty 17 7 0 10 -262144
-1 -1;
#X obj 878 220 random 8;
#N canvas 603 310 450 323 parse 0;
#X obj 107 52 inlet;
#X obj 107 164 outlet;
#X obj 107 103 change;
#X obj 107 81 > 0.2;
#X obj 107 125 route 1 2;
#X connect 0 0 3 0;
#X connect 2 0 4 0;
#X connect 3 0 2 0;
#X connect 4 0 1 0;
#X restore 887 132 pd parse;
#N canvas 603 310 450 323 parse 0;
#X obj 107 52 inlet;
#X obj 107 164 outlet;
#X obj 107 103 change;
#X obj 107 81 > 0.2;
#X obj 107 125 route 1 2;
#X connect 0 0 3 0;
#X connect 2 0 4 0;
#X connect 3 0 2 0;
#X connect 4 0 1 0;
#X restore 943 132 pd parse;
#N canvas 603 310 450 323 parse 0;
#X obj 107 52 inlet;
#X obj 107 164 outlet;
#X obj 107 103 change;
#X obj 107 81 > 0.2;
#X obj 107 125 route 1 2;
#X connect 0 0 3 0;
#X connect 2 0 4 0;
#X connect 3 0 2 0;
#X connect 4 0 1 0;
#X restore 998 132 pd parse;
#N canvas 603 310 450 323 parse 0;
#X obj 107 52 inlet;
#X obj 107 164 outlet;
#X obj 107 103 change;
#X obj 107 81 > 0.2;
#X obj 107 125 route 1 2;
#X connect 0 0 3 0;
#X connect 2 0 4 0;
#X connect 3 0 2 0;
#X connect 4 0 1 0;
#X restore 1054 132 pd parse;
#N canvas 603 310 450 323 parse 0;
#X obj 107 52 inlet;
#X obj 107 164 outlet;
#X obj 107 103 change;
#X obj 107 81 > 0.2;
#X obj 107 125 route 1 2;
#X connect 0 0 3 0;
#X connect 2 0 4 0;
#X connect 3 0 2 0;
#X connect 4 0 1 0;
#X restore 1110 132 pd parse;
#N canvas 603 310 450 323 parse 0;
#X obj 107 52 inlet;
#X obj 107 164 outlet;
#X obj 107 103 change;
#X obj 107 81 > 0.2;
#X obj 107 125 route 1 2;
#X connect 0 0 3 0;
#X connect 2 0 4 0;
#X connect 3 0 2 0;
#X connect 4 0 1 0;
#X restore 1166 132 pd parse;
#N canvas 603 310 450 323 parse 0;
#X obj 107 52 inlet;
#X obj 107 164 outlet;
#X obj 107 103 change;
#X obj 107 81 > 0.2;
#X obj 107 125 route 1 2;
#X connect 0 0 3 0;
#X connect 2 0 4 0;
#X connect 3 0 2 0;
#X connect 4 0 1 0;
#X restore 1221 132 pd parse;
#N canvas 603 310 450 323 parse 0;
#X obj 107 52 inlet;
#X obj 107 164 outlet;
#X obj 107 103 change;
#X obj 107 81 > 0.2;
#X obj 107 125 route 1 2;
#X connect 0 0 3 0;
#X connect 2 0 4 0;
#X connect 3 0 2 0;
#X connect 4 0 1 0;
#X restore 1277 132 pd parse;
#N canvas 603 310 450 323 parse 0;
#X obj 107 52 inlet;
#X obj 107 164 outlet;
#X obj 107 103 change;
#X obj 107 81 > 0.2;
#X obj 107 125 route 1 2;
#X connect 0 0 3 0;
#X connect 2 0 4 0;
#X connect 3 0 2 0;
#X connect 4 0 1 0;
#X restore 1333 132 pd parse;
#N canvas 603 310 450 323 parse 0;
#X obj 107 52 inlet;
#X obj 107 164 outlet;
#X obj 107 103 change;
#X obj 107 81 > 0.2;
#X obj 107 125 route 1 2;
#X connect 0 0 3 0;
#X connect 2 0 4 0;
#X connect 3 0 2 0;
#X connect 4 0 1 0;
#X restore 1389 132 pd parse;
#N canvas 603 310 450 323 parse 0;
#X obj 107 52 inlet;
#X obj 107 164 outlet;
#X obj 107 103 change;
#X obj 107 81 > 0.2;
#X obj 107 125 route 1 2;
#X connect 0 0 3 0;
#X connect 2 0 4 0;
#X connect 3 0 2 0;
#X connect 4 0 1 0;
#X restore 1444 132 pd parse;
#N canvas 603 310 450 323 parse 0;
#X obj 107 52 inlet;
#X obj 107 164 outlet;
#X obj 107 103 change;
#X obj 107 81 > 0.2;
#X obj 107 125 route 1 2;
#X connect 0 0 3 0;
#X connect 2 0 4 0;
#X connect 3 0 2 0;
#X connect 4 0 1 0;
#X restore 1500 132 pd parse;
#N canvas 603 310 450 323 parse 0;
#X obj 107 52 inlet;
#X obj 107 164 outlet;
#X obj 107 103 change;
#X obj 107 81 > 0.2;
#X obj 107 125 route 1 2;
#X connect 0 0 3 0;
#X connect 2 0 4 0;
#X connect 3 0 2 0;
#X connect 4 0 1 0;
#X restore 1556 132 pd parse;
#N canvas 603 310 450 323 parse 0;
#X obj 107 52 inlet;
#X obj 107 164 outlet;
#X obj 107 103 change;
#X obj 107 81 > 0.2;
#X obj 107 125 route 1 2;
#X connect 0 0 3 0;
#X connect 2 0 4 0;
#X connect 3 0 2 0;
#X connect 4 0 1 0;
#X restore 1612 132 pd parse;
#N canvas 603 310 450 323 parse 0;
#X obj 107 52 inlet;
#X obj 107 164 outlet;
#X obj 107 103 change;
#X obj 107 81 > 0.2;
#X obj 107 125 route 1 2;
#X connect 0 0 3 0;
#X connect 2 0 4 0;
#X connect 3 0 2 0;
#X connect 4 0 1 0;
#X restore 1667 132 pd parse;
#N canvas 603 310 450 323 parse 0;
#X obj 107 52 inlet;
#X obj 107 164 outlet;
#X obj 107 103 change;
#X obj 107 81 > 0.2;
#X obj 107 125 route 1 2;
#X connect 0 0 3 0;
#X connect 2 0 4 0;
#X connect 3 0 2 0;
#X connect 4 0 1 0;
#X restore 1723 132 pd parse;
#N canvas 603 310 450 323 parse 0;
#X obj 107 52 inlet;
#X obj 107 164 outlet;
#X obj 107 103 change;
#X obj 107 81 > 0.2;
#X obj 107 125 route 1 2;
#X connect 0 0 3 0;
#X connect 2 0 4 0;
#X connect 3 0 2 0;
#X connect 4 0 1 0;
#X restore 1779 132 pd parse;
#N canvas 603 310 450 323 parse 0;
#X obj 107 52 inlet;
#X obj 107 164 outlet;
#X obj 107 103 change;
#X obj 107 81 > 0.2;
#X obj 107 125 route 1 2;
#X connect 0 0 3 0;
#X connect 2 0 4 0;
#X connect 3 0 2 0;
#X connect 4 0 1 0;
#X restore 1835 132 pd parse;
#N canvas 603 310 450 323 parse 0;
#X obj 107 52 inlet;
#X obj 107 164 outlet;
#X obj 107 103 change;
#X obj 107 81 > 0.2;
#X obj 107 125 route 1 2;
#X connect 0 0 3 0;
#X connect 2 0 4 0;
#X connect 3 0 2 0;
#X connect 4 0 1 0;
#X restore 1890 132 pd parse;
#N canvas 603 310 450 323 parse 0;
#X obj 107 52 inlet;
#X obj 107 164 outlet;
#X obj 107 103 change;
#X obj 107 81 > 0.2;
#X obj 107 125 route 1 2;
#X connect 0 0 3 0;
#X connect 2 0 4 0;
#X connect 3 0 2 0;
#X connect 4 0 1 0;
#X restore 1946 132 pd parse;
#N canvas 603 310 450 323 parse 0;
#X obj 107 52 inlet;
#X obj 107 164 outlet;
#X obj 107 103 change;
#X obj 107 81 > 0.2;
#X obj 107 125 route 1 2;
#X connect 0 0 3 0;
#X connect 2 0 4 0;
#X connect 3 0 2 0;
#X connect 4 0 1 0;
#X restore 2002 132 pd parse;
#N canvas 603 310 450 323 parse 0;
#X obj 107 52 inlet;
#X obj 107 164 outlet;
#X obj 107 103 change;
#X obj 107 81 > 0.2;
#X obj 107 125 route 1 2;
#X connect 0 0 3 0;
#X connect 2 0 4 0;
#X connect 3 0 2 0;
#X connect 4 0 1 0;
#X restore 2058 132 pd parse;
#N canvas 603 310 450 323 parse 0;
#X obj 107 52 inlet;
#X obj 107 164 outlet;
#X obj 107 103 change;
#X obj 107 81 > 0.2;
#X obj 107 125 route 1 2;
#X connect 0 0 3 0;
#X connect 2 0 4 0;
#X connect 3 0 2 0;
#X connect 4 0 1 0;
#X restore 2113 132 pd parse;
#N canvas 603 310 450 323 parse 0;
#X obj 107 52 inlet;
#X obj 107 164 outlet;
#X obj 107 103 change;
#X obj 107 81 > 0.2;
#X obj 107 125 route 1 2;
#X connect 0 0 3 0;
#X connect 2 0 4 0;
#X connect 3 0 2 0;
#X connect 4 0 1 0;
#X restore 2169 132 pd parse;
#N canvas 603 310 450 323 parse 0;
#X obj 107 52 inlet;
#X obj 107 164 outlet;
#X obj 107 103 change;
#X obj 107 81 > 0.2;
#X obj 107 125 route 1 2;
#X connect 0 0 3 0;
#X connect 2 0 4 0;
#X connect 3 0 2 0;
#X connect 4 0 1 0;
#X restore 2225 132 pd parse;
#N canvas 603 310 450 323 parse 0;
#X obj 107 52 inlet;
#X obj 107 164 outlet;
#X obj 107 103 change;
#X obj 107 81 > 0.2;
#X obj 107 125 route 1 2;
#X connect 0 0 3 0;
#X connect 2 0 4 0;
#X connect 3 0 2 0;
#X connect 4 0 1 0;
#X restore 2281 132 pd parse;
#X obj 890 200 bng 15 250 50 0 empty empty empty 17 7 0 10 -262144
-1 -1;
#X obj 711 307 tabread scale_intervals;
#X floatatom 711 276 5 0 0 0 - - -, f 5;
#X obj 711 374 +;
#X msg 726 346 0;
#X msg 752 346 0.7;
#X msg 778 346 1.2;
#X floatatom 711 396 5 0 0 0 - - -, f 5;
#X obj 711 417 print;
#X obj 719 127 print capTouch;
#X obj 765 240 f;
#X obj 794 240 + 1;
#X obj 765 262 mod 8;
#X obj 659 234 f;
#X obj 688 234 + 1;
#X obj 659 256 mod 8;
#X obj 659 202 bng 15 250 50 0 empty empty empty 17 7 0 10 -262144
-1 -1;
#X msg 294 39 \; scale_intervals 0 1.2 1.4 1.6 1.7 1.9 2.1 2.3 2.4
;
#X obj 263 67 loadbang;
#X connect 6 0 18 0;
#X connect 7 0 8 0;
#X connect 8 0 9 0;
#X connect 9 0 21 0;
#X connect 11 0 17 0;
#X connect 11 0 12 1;
#X connect 12 0 88 0;
#X connect 13 0 12 0;
#X connect 14 0 13 0;
#X connect 17 0 53 0;
#X connect 17 1 54 0;
#X connect 17 2 55 0;
#X connect 17 3 56 0;
#X connect 17 4 57 0;
#X connect 17 5 58 0;
#X connect 17 6 59 0;
#X connect 17 7 60 0;
#X connect 17 8 61 0;
#X connect 17 9 62 0;
#X connect 17 10 63 0;
#X connect 17 11 64 0;
#X connect 17 12 65 0;
#X connect 17 13 66 0;
#X connect 17 14 67 0;
#X connect 17 15 68 0;
#X connect 17 16 69 0;
#X connect 17 17 70 0;
#X connect 17 18 71 0;
#X connect 17 19 72 0;
#X connect 17 20 73 0;
#X connect 17 21 74 0;
#X connect 17 22 75 0;
#X connect 17 23 76 0;
#X connect 17 24 77 0;
#X connect 17 25 78 0;
#X connect 18 0 52 0;
#X connect 18 0 89 0;
#X connect 21 0 0 0;
#X connect 22 0 21 1;
#X connect 23 0 24 0;
#X connect 23 0 25 0;
#X connect 23 0 26 1;
#X connect 24 0 23 1;
#X connect 26 0 35 0;
#X connect 27 0 38 0;
#X connect 28 0 23 0;
#X connect 30 0 34 0;
#X connect 31 0 30 0;
#X connect 32 0 31 0;
#X connect 34 0 36 0;
#X connect 35 0 32 0;
#X connect 37 0 27 0;
#X connect 38 0 26 0;
#X connect 38 0 28 0;
#X connect 39 0 23 0;
#X connect 49 0 18 1;
#X connect 50 0 52 0;
#X connect 51 0 20 0;
#X connect 52 0 7 0;
#X connect 52 0 51 0;
#X connect 53 0 79 0;
#X connect 54 0 79 0;
#X connect 55 0 79 0;
#X connect 56 0 79 0;
#X connect 57 0 79 0;
#X connect 58 0 79 0;
#X connect 59 0 79 0;
#X connect 60 0 79 0;
#X connect 61 0 79 0;
#X connect 62 0 79 0;
#X connect 63 0 79 0;
#X connect 64 0 79 0;
#X connect 65 0 79 0;
#X connect 66 0 79 0;
#X connect 67 0 79 0;
#X connect 68 0 79 0;
#X connect 69 0 79 0;
#X connect 70 0 79 0;
#X connect 71 0 79 0;
#X connect 72 0 79 0;
#X connect 73 0 79 0;
#X connect 74 0 79 0;
#X connect 75 0 79 0;
#X connect 76 0 79 0;
#X connect 77 0 79 0;
#X connect 78 0 79 0;
#X connect 79 0 52 0;
#X connect 80 0 82 0;
#X connect 81 0 80 0;
#X connect 82 0 86 0;
#X connect 83 0 82 1;
#X connect 84 0 82 1;
#X connect 85 0 82 1;
#X connect 86 0 87 0;
#X connect 89 0 90 0;
#X connect 89 0 91 0;
#X connect 90 0 89 1;
#X connect 91 0 7 0;
#X connect 91 0 51 0;
#X connect 92 0 93 0;
#X connect 92 0 94 0;
#X connect 93 0 92 1;
#X connect 94 0 81 0;
#X connect 95 0 92 0;
#X connect 97 0 3 0;
#X restore 50 -55 pd note_selector;
#N canvas 0 22 450 300 sketches 0;
#N canvas 289 39 932 573 m_scale 0;
#X obj 125 113 f \$1;
#X obj 295 115 f \$4;
#X obj 245 111 f \$3;
#X obj 175 111 f \$2;
#X obj 125 24 inlet;
#X obj 175 24 inlet;
#X obj 245 24 inlet;
#X obj 295 24 inlet;
#X obj 39 -7 inlet;
#X obj 39 497 outlet;
#X text 450 -12 ARGS;
#X text 460 12 1: input_low_border;
#X text 460 34 2: input_high_border;
#X text 460 60 3: output_low_border;
#X text 460 82 4: output_high_border;
#X text 102 -7 scale [from_low \, from_hi] to [to_low \, to_hi];
#X obj 344 65 t b b b b;
#X obj 344 23 loadbang;
#X obj 39 464 +;
#X text 157 236 inh-inl;
#X text 282 225 outh-outl;
#X obj 39 427 *;
#X text 71 277 - inl;
#X text 71 465 + outl;
#X obj 175 176 t b a;
#X obj 295 164 t b a;
#X msg 353 44 bang;
#X obj 39 303 / 1;
#X obj 39 279 -;
#X obj 245 226 -;
#X obj 245 205 swap;
#X obj 125 210 swap;
#X obj 125 235 -;
#N canvas 0 22 549 462 mapping 0;
#X obj 103 74 inlet;
#X obj 103 358 outlet;
#X obj 133 265 pow 1;
#X obj 206 75 inlet;
#X obj 206 120 select 1;
#X obj 187 254 * 2;
#X obj 187 227 - 1;
#X msg 187 276 10 \$1;
#X obj 206 96 route float dB;
#N canvas 477 233 525 407 demux3 0;
#X obj 88 263 outlet;
#X obj 88 226 spigot 1;
#X obj 171 264 outlet;
#X obj 171 227 spigot 0;
#X obj 241 264 outlet;
#X obj 241 227 spigot 0;
#X obj 265 152 unpack 0 0 0;
#X obj 88 51 inlet;
#X obj 265 57 inlet;
#X msg 265 109 1 0 0;
#X msg 311 110 0 1 0;
#X msg 360 110 0 0 1;
#X obj 265 83 select 0 1 2;
#X connect 1 0 0 0;
#X connect 3 0 2 0;
#X connect 5 0 4 0;
#X connect 6 0 1 1;
#X connect 6 1 3 1;
#X connect 6 2 5 1;
#X connect 7 0 1 0;
#X connect 7 0 3 0;
#X connect 7 0 5 0;
#X connect 8 0 12 0;
#X connect 9 0 6 0;
#X connect 10 0 6 0;
#X connect 11 0 6 0;
#X connect 12 0 9 0;
#X connect 12 1 10 0;
#X connect 12 2 11 0;
#X restore 103 204 pd demux3;
#X msg 206 142 0;
#X msg 259 142 1;
#X msg 301 143 2;
#X obj 187 302 pow;
#X connect 0 0 9 0;
#X connect 2 0 1 0;
#X connect 3 0 8 0;
#X connect 4 0 10 0;
#X connect 4 1 11 0;
#X connect 5 0 7 0;
#X connect 6 0 5 0;
#X connect 7 0 13 0;
#X connect 8 0 4 0;
#X connect 8 0 2 1;
#X connect 8 1 12 0;
#X connect 9 0 1 0;
#X connect 9 1 2 0;
#X connect 9 2 6 0;
#X connect 10 0 9 1;
#X connect 11 0 9 1;
#X connect 12 0 9 1;
#X connect 13 0 1 0;
#X restore 39 393 pd mapping;
#X text 461 109 5: mapping: float is a pow-exponent \, "dB" can be
used to use a dB scaling (optional \, default is linear);
#X connect 0 0 28 1;
#X connect 0 0 31 0;
#X connect 1 0 25 0;
#X connect 2 0 18 1;
#X connect 2 0 30 0;
#X connect 3 0 24 0;
#X connect 4 0 0 0;
#X connect 5 0 3 0;
#X connect 6 0 2 0;
#X connect 7 0 1 0;
#X connect 8 0 28 0;
#X connect 16 0 0 0;
#X connect 16 1 3 0;
#X connect 16 2 2 0;
#X connect 16 3 1 0;
#X connect 17 0 16 0;
#X connect 18 0 9 0;
#X connect 21 0 18 0;
#X connect 24 0 31 0;
#X connect 24 1 31 1;
#X connect 25 0 30 0;
#X connect 25 1 30 1;
#X connect 26 0 16 0;
#X connect 27 0 33 0;
#X connect 28 0 27 0;
#X connect 29 0 21 1;
#X connect 30 0 29 0;
#X connect 30 1 29 1;
#X connect 31 0 32 0;
#X connect 31 1 32 1;
#X connect 32 0 27 1;
#X connect 33 0 21 0;
#X restore 78 225 pd m_scale;
#X floatatom 104 111 5 0 0 1 in_low_border - -, f 5;
#X floatatom 131 132 5 0 0 1 in_high_border - -, f 5;
#X floatatom 159 157 5 0 0 1 out_low_border - -, f 5;
#X floatatom 186 185 5 0 0 1 out_high_border - -, f 5;
#X msg 353 175 dry 1;
#X msg 350 126 wet 0;
#X msg 353 72 damping 0.9;
#X msg 352 98 roomsize 0.6;
#X obj 295 27 loadbang;
#X msg 353 153 wet 0.3;
#X connect 1 0 0 1;
#X connect 2 0 0 2;
#X connect 3 0 0 3;
#X connect 4 0 0 4;
#X connect 9 0 7 0;
#X connect 9 0 8 0;
#X connect 9 0 10 0;
#X connect 9 0 5 0;
#X restore 49 141 pd sketches;
#X obj 88 313 r~ exciter;
#X msg 292 446 all \$1;
#X obj 273 248 iter;
#X obj 273 277 t b f;
#X obj 260 403 pack;
#X msg 347 449 all \$1;
#X floatatom 356 421 5 0 0 0 - - -, f 5;
#X obj 255 321 f;
#X obj 298 318 + 1;
#X msg 300 415 3000;
#X obj 160 331 r note_selector;
#X floatatom 160 353 5 0 0 0 - - -, f 5;
#X obj 160 374 mtof;
#X obj 233 496 clone voice 26;
#X obj 255 355 mod 26;
#X obj 272 196 list-extend;
#X obj 273 32 tgl 15 0 empty empty empty 17 7 0 10 -262144 -1 -1 0
1;
#X obj 273 54 metro 1;
#X obj 272 13 loadbang;
#X obj 272 218 spigot;
#X obj 282 158 t b 0 b 1 0 0;
#X obj 282 109 + 1;
#X obj 282 133 sel 27;
#X msg 227 449 all \$1;
#X msg 167 300 60;
#X obj 316 359 loadbang;
#X obj 399 315 f;
#X obj 399 371 pack;
#X obj 399 276 t b f;
#X obj 399 349 mod 10;
#X obj 442 315 + 1;
#N canvas 0 22 450 300 scale_selector 0;
#X restore 47 199 pd scale_selector;
#X obj 273 84 f;
#X obj 303 84 + 1;
#X msg 334 387 100;
#X obj 235 528 *~ 1;
#X connect 0 0 3 0;
#X connect 3 0 1 0;
#X connect 8 0 21 0;
#X connect 9 0 21 2;
#X connect 10 0 11 0;
#X connect 10 0 36 0;
#X connect 11 0 15 0;
#X connect 11 1 12 1;
#X connect 12 0 21 4;
#X connect 13 0 21 3;
#X connect 14 0 13 0;
#X connect 15 0 16 0;
#X connect 15 0 22 0;
#X connect 16 0 15 1;
#X connect 17 0 9 0;
#X connect 18 0 19 0;
#X connect 19 0 20 0;
#X connect 20 0 31 0;
#X connect 21 0 43 0;
#X connect 22 0 12 0;
#X connect 23 0 27 0;
#X connect 24 0 25 0;
#X connect 25 0 40 0;
#X connect 26 0 24 0;
#X connect 27 0 10 0;
#X connect 28 0 23 1;
#X connect 28 1 27 1;
#X connect 28 2 23 0;
#X connect 28 3 27 1;
#X connect 28 4 40 0;
#X connect 28 5 24 0;
#X connect 29 0 30 0;
#X connect 30 0 28 0;
#X connect 31 0 21 1;
#X connect 32 0 20 0;
#X connect 33 0 17 0;
#X connect 33 0 42 0;
#X connect 34 0 37 0;
#X connect 34 0 38 0;
#X connect 36 0 34 0;
#X connect 36 1 35 1;
#X connect 37 0 35 0;
#X connect 38 0 34 1;
#X connect 40 0 41 0;
#X connect 40 0 29 0;
#X connect 40 0 23 0;
#X connect 41 0 40 1;
#X connect 42 0 14 0;
#X connect 43 0 4 0;
#X connect 43 0 4 1;
