#N canvas 149 208 663 300 10;
#X obj 162 111 inlet~;
#X obj 207 250 outlet~;
#X obj 206 182 bp~;
#X obj 219 110 inlet;
#X obj 312 111 inlet;
#X obj 259 110 inlet;
#X obj 219 152 * 1;
#X connect 0 0 2 0;
#X connect 2 0 1 0;
#X connect 3 0 6 0;
#X connect 4 0 2 2;
#X connect 5 0 6 1;
#X connect 6 0 2 1;
